<svg width="87" height="25" viewBox="0 0 87 25" fill="none" xmlns="http://www.w3.org/2000/svg">
<g clip-path="url(#clip0)">
<path d="M23.0909 0H1.90909C0.854729 0 0 0.854729 0 1.90909V23.0909C0 24.1453 0.854729 25 1.90909 25H23.0909C24.1453 25 25 24.1453 25 23.0909V1.90909C25 0.854729 24.1453 0 23.0909 0Z" fill="white"/>
<path d="M4.848 8.18865V20.2274H16.8839V18.5747L6.50019 18.5748L6.50023 8.18865H4.848ZM7.96364 5.15161V17.1903H19.9995V5.15161H7.96364Z" fill="#15232B"/>
<path d="M32.848 10.7652H30.9617V9.17425H32.848V7.76516C32.848 6.67425 33.1738 5.81441 33.8253 5.18561C34.4768 4.55682 35.3783 4.24243 36.5299 4.24243C37.0147 4.24243 37.473 4.31819 37.9049 4.4697C38.3367 4.62122 38.6889 4.83334 38.9617 5.10607L38.1435 6.46971C37.7647 6.13637 37.295 5.96971 36.7344 5.96971C36.2344 5.96971 35.8367 6.14016 35.5412 6.48107C35.2458 6.82198 35.098 7.28789 35.098 7.8788V9.17425H38.3253V10.7652H35.098V20.5379H32.848V10.7652ZM43.9693 20.7652C42.2268 20.7652 40.8556 20.2387 39.8556 19.1856C38.8556 18.1326 38.3556 16.6894 38.3556 14.8561C38.3556 13.0227 38.8556 11.5796 39.8556 10.5265C40.8556 9.47349 42.2268 8.94698 43.9693 8.94698C45.7117 8.94698 47.0867 9.47349 48.0943 10.5265C49.1018 11.5796 49.6056 13.0227 49.6056 14.8561C49.6056 16.6894 49.1018 18.1326 48.0943 19.1856C47.0867 20.2387 45.7117 20.7652 43.9693 20.7652ZM43.9693 19.0606C45.0147 19.0606 45.8405 18.6856 46.4465 17.9356C47.0526 17.1856 47.3556 16.1591 47.3556 14.8561C47.3556 13.553 47.0526 12.5265 46.4465 11.7765C45.8405 11.0265 45.0147 10.6515 43.9693 10.6515C42.9086 10.6515 42.0829 11.0265 41.492 11.7765C40.9011 12.5265 40.6056 13.553 40.6056 14.8561C40.6056 16.1591 40.9011 17.1856 41.492 17.9356C42.0829 18.6856 42.9086 19.0606 43.9693 19.0606ZM51.6587 11.947C51.6587 10.6591 51.6359 9.73486 51.5905 9.17425H53.7041C53.7647 9.78032 53.795 10.447 53.795 11.1743V11.4015H53.8632C54.1662 10.6288 54.6473 10.0265 55.3064 9.59471C55.9655 9.16289 56.742 8.94698 57.6359 8.94698C57.8784 8.94698 58.0981 8.96971 58.295 9.01516V10.8333C58.189 10.803 57.9541 10.7879 57.5905 10.7879C56.9238 10.7879 56.3064 10.9811 55.7382 11.3674C55.17 11.7538 54.7231 12.2765 54.3973 12.9356C54.0715 13.5947 53.9087 14.3182 53.9087 15.1061V20.5379H51.6587V11.947ZM59.689 12.0833C59.689 10.9318 59.6511 9.96214 59.5753 9.17425H61.5753C61.6359 9.73486 61.6663 10.4015 61.6663 11.1743H61.7344C62.0223 10.4924 62.4882 9.95077 63.1322 9.54925C63.7761 9.14774 64.5072 8.94698 65.3253 8.94698C66.1284 8.94698 66.8178 9.14016 67.3935 9.52653C67.9693 9.91289 68.3557 10.4546 68.5526 11.1515C68.8708 10.4697 69.3519 9.93183 69.9958 9.53789C70.6397 9.14395 71.3632 8.94698 72.1663 8.94698C73.4238 8.94698 74.4049 9.35228 75.1094 10.1629C75.814 10.9735 76.1663 12.0909 76.1663 13.5152V20.5379H73.9163V13.7197C73.9163 12.7803 73.7155 12.053 73.314 11.5379C72.9125 11.0227 72.3405 10.7652 71.5981 10.7652C70.8405 10.7652 70.2231 11.0417 69.7458 11.5947C69.2685 12.1477 69.0299 12.8636 69.0299 13.7424V20.5379H66.8026V13.8106C66.8026 11.7803 66.0602 10.7652 64.5753 10.7652C64.0905 10.7652 63.6473 10.9015 63.2458 11.1743C62.8443 11.447 62.5223 11.8182 62.2799 12.2879C62.0375 12.7576 61.9163 13.2652 61.9163 13.8106V20.5379H59.689V12.0833ZM81.992 20.7652C81.0981 20.7652 80.2951 20.5834 79.5829 20.2197C78.8708 19.8561 78.3708 19.3712 78.0829 18.7652L79.5148 17.7879C79.7723 18.1818 80.1208 18.4924 80.5602 18.7197C80.9996 18.947 81.4769 19.0606 81.992 19.0606C82.5829 19.0606 83.0716 18.894 83.4579 18.5606C83.8443 18.2273 84.0375 17.8031 84.0375 17.2879C84.0375 16.8788 83.886 16.5417 83.5829 16.2765C83.2799 16.0114 82.7193 15.7273 81.9011 15.4243C80.5829 14.9243 79.6549 14.4129 79.117 13.8902C78.5791 13.3674 78.3102 12.7197 78.3102 11.947C78.3102 11.0379 78.6701 10.3106 79.3898 9.76516C80.1095 9.21971 81.0678 8.94698 82.2648 8.94698C83.0375 8.94698 83.742 9.10607 84.3784 9.42425C85.0148 9.74244 85.5148 10.1894 85.8784 10.7652L84.5375 11.7652C84.2799 11.4015 83.9579 11.125 83.5716 10.9356C83.1852 10.7462 82.7572 10.6515 82.2875 10.6515C81.7723 10.6515 81.3519 10.7652 81.0261 10.9924C80.7004 11.2197 80.5375 11.5152 80.5375 11.8788C80.5375 12.2576 80.7041 12.572 81.0375 12.822C81.3708 13.072 82.0223 13.3864 82.992 13.7652C84.2042 14.2349 85.0564 14.7235 85.5489 15.2311C86.0413 15.7387 86.2875 16.394 86.2875 17.197C86.2875 18.2728 85.8936 19.1364 85.1057 19.7879C84.3178 20.4394 83.2799 20.7652 81.992 20.7652Z" fill="white"/>
</g>
<defs>
<clipPath id="clip0">
<rect width="86.5044" height="25" fill="white"/>
</clipPath>
</defs>
</svg>
